<?xml version="1.0" encoding="utf-8"?>
<!-- Generator: Adobe Illustrator 24.0.3, SVG Export Plug-In . SVG Version: 6.00 Build 0)  -->
<svg version="1.1" id="Layer_1" xmlns="http://www.w3.org/2000/svg" xmlns:xlink="http://www.w3.org/1999/xlink" x="0px" y="0px"
	 viewBox="0 0 272 115" style="enable-background:new 0 0 272 115;" xml:space="preserve">
<style type="text/css">
	.st0{fill-rule:evenodd;clip-rule:evenodd;fill:#213B8B;}
	.st1{fill-rule:evenodd;clip-rule:evenodd;fill:#E42320;}
	.st2{fill:#E42320;}
</style>
<g>
	<g>
		<g>
			<path class="st0" d="M255.6,3.6c6.3,0,11.4,5.1,11.4,11.4c0,1-0.1,2-0.4,2.9c-0.1,0-0.2,0-0.2,0.1l0,0l-0.9,0.8h0
				c-0.1,0.1-0.2,0.1-0.3,0.1l0,0c-0.2-0.1-0.4-0.1-0.6-0.2v0l0,0l0,0l0,0v0l0,0h0l0,0l0,0l0,0l0,0l0,0l0,0l0,0l0,0h0l0,0h0l0,0l0,0
				l0,0l0,0l0,0l0,0l0,0l0,0l0,0l0,0l0,0l0,0l0,0l0,0l0,0l0,0l0,0l0,0v0l0,0l0,0l0,0l0,0l0,0l0,0l0,0l0,0l0,0l0,0v0l0,0l0,0l0,0l0,0
				l0,0v0l0,0l0,0l0,0l0,0l0,0h0l0,0l0,0l0,0v0l0,0v0l0,0v0l0,0h0l0,0l0,0l0,0l0,0l0,0v0l0,0l0,0l0,0l0,0l0,0l0,0l0,0v0l0,0l0,0l0,0
				l0,0l0,0l0,0l0,0v0l0,0l0,0l0,0l0,0l0,0l0,0l0,0l0,0l0,0l0,0l0,0l0,0l0,0l0,0l0,0l0,0l0,0l0,0l0,0l0,0l0,0l0,0v0l0,0l0,0l0,0l0,0
				l0,0h0l-0.4-1.2l0,0h0c0,0,0,0,0,0l0,0l0,0l0,0l0,0l0,0l0,0h0l0,0l0,0l0,0l0,0l0,0l0,0l0,0l0,0l0,0h0l0,0h0l0,0l0,0l0,0l0,0l0,0
				l0,0l0,0l0,0l0,0l0,0l0,0l0,0l0,0l0,0l0,0l0,0l0,0l0,0l0,0l0,0l0,0l0,0l0,0l0,0l0,0l0,0l0,0l0,0l0,0l0,0l0,0h0l0,0l0,0v0l0,0l0,0
				l0,0l0,0l0,0l0,0l0,0l0,0v0l0,0l0,0l0,0l0,0l0,0v0l0,0l0,0l0,0l0,0l0,0l0,0l0,0l0,0v0l0,0l0,0l0,0l0,0c0,0,0,0,0,0v0l-0.5,0
				l-0.5,0l0,0l0,0l0,0l0,0l0,0l0,0l0,0l0,0l0,0l0,0l0,0l0,0l0,0l0,0v0l0,0l0,0l0,0l0,0l0,0l0,0l0,0l0,0l0,0l0,0l0,0l0,0h0l0,0l0,0
				l0,0l0,0l0,0l0,0l0,0l0,0l0,0l0,0l0,0h0l0,0l0,0l0,0l0,0l0,0l0,0l0,0l0,0l0,0h0l0,0h0l0,0h0l0,0l0,0l0,0l0,0l0,0l0,0l0,0l0,0l0,0
				h0l0,0l0,0l0,0h0l0,0l0,0l0,0l0,0l0,0l0,0l0,0h0l0,0l0,0l0,0h0l0,0l0,0l0,0l0,0l0,0l0,0l0,0l0,0l-0.2,1.2h0l0,0c0,0,0,0,0,0.1
				l0,0l0,0h0l0,0l0,0l0,0l0,0l0,0l0,0l0,0l0,0v0l0,0l0,0l0,0l0,0l0,0l0,0h0l0,0l0,0l0,0l0,0l0,0l0,0v0l0,0l0,0l0,0l0,0l0,0l0,0l0,0
				l0,0l0,0l0,0l0,0l0,0l0,0l0,0l0,0l0,0l0,0l0,0l0,0l0,0l0,0l0,0l0,0l0,0l0,0l0,0l0,0l0,0l0,0l0,0l0,0l0,0l0,0h0l0,0l0,0l0,0l0,0
				l0,0h0l0,0h0l0,0l0,0l0,0v0c-0.2,0.1-0.4,0.2-0.6,0.3l0,0c-0.1,0-0.2,0-0.3,0l0,0l-0.5-0.3l0.3,0.1l0,0c0.1,0,0.2,0,0.3-0.1
				l0.2-0.4l0.2-0.3l0,0c0.1-0.1,0-0.2,0-0.3l0,0l-0.7-0.7c-0.1-0.1-0.1-0.2-0.1-0.3c0.1-0.2,0.2-0.5,0.2-0.8c0-0.1,0.1-0.2,0.3-0.2
				l0,0l0.9-0.2l0,0c0.1,0,0.2-0.1,0.2-0.2v-0.4v-0.4v0c0-0.1-0.1-0.2-0.2-0.2l0,0l-0.9-0.2c-0.1,0-0.2-0.1-0.2-0.2
				c0-0.3-0.1-0.5-0.2-0.7c0-0.1,0-0.3,0.1-0.3l0,0l0.7-0.7v0c0.1-0.1,0.1-0.2,0-0.3l-0.2-0.4l-0.2-0.3l0,0
				c-0.1-0.1-0.2-0.1-0.3-0.1l0,0l-0.9,0.3c-0.1,0-0.3,0-0.3-0.1l0,0c-0.2-0.2-0.3-0.4-0.5-0.5l0,0c-0.1-0.1-0.1-0.2-0.1-0.3l0,0
				l0.3-0.9h0c0-0.1,0-0.2-0.1-0.3l-0.4-0.2l-0.3-0.2l0,0c-0.1-0.1-0.2,0-0.3,0l0,0l-0.7,0.7c-0.1,0.1-0.2,0.1-0.3,0.1
				c-0.2-0.1-0.5-0.1-0.7-0.2v0c-0.1,0-0.2-0.1-0.3-0.3l0,0l-0.2-0.9h0c0-0.1-0.1-0.2-0.2-0.2h-0.4l-0.4,0l0,0
				c-0.1,0-0.2,0.1-0.2,0.2l0,0l-0.2,0.9c0,0.1-0.1,0.2-0.2,0.2l0,0c-0.3,0-0.5,0.1-0.7,0.2l0,0c-0.1,0-0.3,0-0.3-0.1l0,0l-0.7-0.7
				l0,0c-0.1-0.1-0.2-0.1-0.3,0l-0.4,0.2l-0.3,0.2l0,0c-0.1,0.1-0.1,0.2-0.1,0.3l0,0l0.3,0.9c0,0.1,0,0.3-0.1,0.3l0,0
				c-0.2,0.2-0.4,0.3-0.5,0.5l0,0c-0.1,0.1-0.2,0.1-0.3,0.1l0,0l-0.9-0.3l0,0c-0.1,0-0.2,0-0.3,0.1l-0.2,0.4l-0.2,0.3l0,0
				c-0.1,0.1,0,0.2,0,0.3l0,0l0.7,0.7c0.1,0.1,0.1,0.2,0.1,0.3h0c-0.1,0.2-0.1,0.5-0.2,0.7h0c0,0.1-0.1,0.2-0.3,0.2l0,0l-0.9,0.2
				l0,0c-0.1,0-0.2,0.1-0.2,0.2v0.4v0.4v0c0,0.1,0.1,0.2,0.2,0.2l0,0l0.9,0.2c0.1,0,0.2,0.1,0.2,0.2h0c0,0.3,0.1,0.5,0.2,0.7l0,0
				c0,0.1,0,0.3-0.1,0.3l0,0l-0.7,0.7v0c-0.1,0.1-0.1,0.2,0,0.3l0.2,0.4l0.2,0.3l0,0c0.1,0.1,0.2,0.1,0.3,0.1l0,0l0.9-0.3
				c0.1,0,0.3,0,0.3,0.1l0,0c0.2,0.2,0.3,0.4,0.5,0.5l0,0c0.1,0.1,0.1,0.2,0.1,0.3l0,0l-0.3,0.9v0c0,0.1,0,0.2,0.1,0.3l0.4,0.2
				l0.3,0.2l0,0c0.1,0.1,0.2,0,0.3,0l0,0l0.7-0.7c0.1-0.1,0.2-0.1,0.3-0.1c0.2,0.1,0.5,0.1,0.7,0.2v0c0.1,0,0.2,0.1,0.3,0.3l0,0
				l0.2,0.9h0c0,0.1,0.1,0.2,0.2,0.2h0.4h0.4h0c0.1,0,0.2-0.1,0.2-0.2l0,0l0.2-0.9c0-0.1,0.1-0.2,0.2-0.2c0.3,0,0.5-0.1,0.7-0.2
				c0.1,0,0.3,0,0.3,0.1l0,0l0.7,0.7h0c0.1,0.1,0.2,0.1,0.3,0l0.4-0.2l0.3-0.2l0,0c0.1-0.1,0.1-0.2,0.1-0.3l0,0l-0.3-0.9l0.6,0.9
				l0,0c0.1,0.1,0.1,0.2,0,0.3l0,0c-0.1,0.2-0.2,0.4-0.3,0.6l0,0c0,0.1-0.1,0.2-0.2,0.2l0,0l-1.2,0.2v0c-0.1,0-0.2,0.1-0.2,0.2
				l0,0.5l0,0.5l0,0c0,0.1,0.1,0.2,0.2,0.3l0,0l1.2,0.4l0,0c0.1,0,0.2,0.1,0.2,0.2h0c0,0.2,0.1,0.4,0.2,0.6l0,0c0,0.1,0,0.2-0.1,0.3
				l0,0l-0.8,0.9v0c-0.1,0.1-0.1,0.2,0,0.3c-0.9,0.3-1.9,0.4-3,0.4c-6.3,0-11.4-5.1-11.4-11.4C244.2,8.8,249.3,3.6,255.6,3.6
				L255.6,3.6z"/>
			<path class="st0" d="M51.2,48.5c0,4.3-0.2,8.1-0.7,11.3c-0.4,3.2-1.1,6.1-1.9,8.5c-0.8,2.4-1.9,4.5-3.1,6.1
				c-1.2,1.6-2.6,3-4.1,4.1c1.6,1.7,3.3,3.9,5.2,6.4c1.9,2.6,3.6,5.2,5.1,7.9h-8.5c-0.9,0-1.5-0.2-1.8-0.6c-0.3-0.4-0.8-0.9-1.3-1.6
				c-0.9-1.6-2.1-3.2-3.4-5c-1.3-1.8-2.5-3.2-3.5-4.2c-0.9,0.2-1.8,0.3-2.8,0.4c-1,0.1-1.9,0.1-2.8,0.1c-3.5,0-6.7-0.5-9.5-1.4
				c-2.9-0.9-5.3-2.6-7.4-5c-2.1-2.4-3.6-5.8-4.8-10.2c-1.1-4.4-1.7-10-1.7-16.9c0-6.9,0.6-12.5,1.7-16.9c1.1-4.4,2.7-7.8,4.8-10.2
				c2.1-2.4,4.5-4.1,7.4-5c2.9-0.9,6-1.4,9.5-1.4s6.7,0.5,9.6,1.4c2.9,0.9,5.4,2.6,7.4,5c2.1,2.4,3.6,5.8,4.8,10.2
				C50.6,36,51.2,41.6,51.2,48.5L51.2,48.5z M14.4,48.5c0,4.8,0.2,8.8,0.6,12c0.4,3.2,1.1,5.8,2.1,7.8c1,2,2.4,3.4,4.1,4.2
				c1.7,0.8,3.9,1.3,6.5,1.3s4.8-0.4,6.5-1.3c1.7-0.8,3.1-2.2,4.1-4.2c1-2,1.8-4.5,2.2-7.8c0.4-3.2,0.7-7.2,0.7-12
				c0-4.8-0.2-8.8-0.7-12c-0.4-3.2-1.2-5.8-2.2-7.8c-1-2-2.4-3.4-4.1-4.2c-1.7-0.8-3.9-1.3-6.5-1.3s-4.8,0.4-6.5,1.3
				c-1.7,0.8-3.1,2.2-4.1,4.2c-1,2-1.7,4.5-2.1,7.8C14.6,39.7,14.4,43.7,14.4,48.5L14.4,48.5z M65.6,60.6c0.1,2.5,0.4,4.6,0.8,6.4
				c0.4,1.7,1.2,3.2,2.2,4.2c1,1.1,2.4,1.9,4.2,2.4c1.7,0.5,4,0.7,6.7,0.7c2.4,0,4.6-0.1,6.6-0.4c2-0.2,3.4-0.4,4.1-0.4
				c1.4,0,2.1,0.7,2.1,2.1v3.9c-1.5,0.6-3.5,1.2-6.1,1.6c-2.6,0.5-5.6,0.7-8.9,0.7c-3.5,0-6.6-0.4-9.2-1.3c-2.6-0.9-4.8-2.3-6.5-4.2
				c-1.7-2-3-4.5-3.8-7.7c-0.8-3.1-1.2-7-1.2-11.4c0-4.5,0.4-8.3,1.2-11.5c0.8-3.2,2-5.8,3.7-7.8c1.7-2,3.7-3.5,6.1-4.4
				c2.4-0.9,5.3-1.4,8.5-1.4c3.6,0,6.6,0.5,8.9,1.5c2.3,1,4.1,2.4,5.4,4.2c1.3,1.7,2.2,3.8,2.7,6.1c0.5,2.3,0.7,4.8,0.7,7.5
				c0,1.8-0.1,3.5-0.3,5.2c-0.2,1.7-0.4,3-0.7,3.8H65.6L65.6,60.6z M85.3,53.9c0.1-0.6,0.1-1.1,0.1-1.4c0-0.3,0-0.7,0-1.2
				c0-4-0.6-7-1.8-9c-1.2-2-3.6-3-7.1-3c-2.1,0-3.9,0.3-5.2,1c-1.4,0.7-2.5,1.6-3.3,2.9c-0.8,1.2-1.4,2.8-1.7,4.6
				c-0.3,1.8-0.5,3.9-0.6,6.1H85.3L85.3,53.9z M101.9,80.8c-1.5,0-2.2-0.7-2.2-2.1V33.3h5.7c0.7,0,1.3,0.2,1.7,0.5
				c0.5,0.3,0.8,0.9,0.9,1.9l0.4,2.9c3.9-4.2,8.8-6.3,14.8-6.3c5.1,0,8.7,1.5,10.9,4.4c2.2,3,3.3,6.9,3.3,11.8v32.3h-7.2
				c-0.7,0-1.2-0.2-1.6-0.6c-0.4-0.4-0.6-0.9-0.6-1.6V49.3c0-3.2-0.7-5.6-2.1-7c-1.4-1.4-3.4-2.1-6-2.1c-2.6,0-4.7,0.5-6.5,1.5
				c-1.8,1-3.2,2.1-4.3,3.1v36H101.9L101.9,80.8z M167.3,80.6c-1.4,0.4-2.8,0.7-4.1,0.8c-1.3,0.2-2.6,0.3-4,0.3c-4.5,0-7.7-1-9.8-3
				c-2-2-3-5.1-3-9.4V40.8h-3.3c-1.5,0-2.2-0.7-2.2-2.1v-5.3h5.7l0.5-12.3h6.5c1.5,0,2.2,0.7,2.2,2.1v10.2h9.2
				c0.7,0,1.2,0.2,1.6,0.6c0.4,0.4,0.6,0.9,0.6,1.6v5.3h-11.4v28c0,1.7,0.3,3,0.8,3.9c0.6,0.9,1.7,1.4,3.4,1.4c1.1,0,1.9,0,2.7,0
				c0.7,0,1.4,0,2,0c1.7,0,2.5,0.7,2.5,2.1V80.6L167.3,80.6z M178.5,60.6c0.1,2.5,0.4,4.6,0.8,6.4c0.4,1.7,1.2,3.2,2.2,4.2
				c1,1.1,2.4,1.9,4.2,2.4c1.7,0.5,4,0.7,6.7,0.7c2.4,0,4.6-0.1,6.6-0.4c2-0.2,3.4-0.4,4.1-0.4c1.4,0,2.1,0.7,2.1,2.1v3.9
				c-1.5,0.6-3.5,1.2-6.1,1.6c-2.6,0.5-5.6,0.7-8.9,0.7c-3.5,0-6.6-0.4-9.2-1.3c-2.6-0.9-4.8-2.3-6.5-4.2c-1.7-2-3-4.5-3.8-7.7
				c-0.8-3.1-1.2-7-1.2-11.4c0-4.5,0.4-8.3,1.2-11.5c0.8-3.2,2-5.8,3.7-7.8c1.7-2,3.7-3.5,6.1-4.4c2.4-0.9,5.3-1.4,8.5-1.4
				c3.6,0,6.6,0.5,8.9,1.5c2.3,1,4.1,2.4,5.4,4.2c1.3,1.7,2.2,3.8,2.7,6.1c0.5,2.3,0.7,4.8,0.7,7.5c0,1.8-0.1,3.5-0.3,5.2
				c-0.2,1.7-0.4,3-0.7,3.8H178.5L178.5,60.6z M198.2,53.9c0.1-0.6,0.1-1.1,0.1-1.4c0-0.3,0-0.7,0-1.2c0-4-0.6-7-1.8-9
				c-1.2-2-3.6-3-7.1-3c-2.1,0-3.9,0.3-5.2,1c-1.4,0.7-2.5,1.6-3.3,2.9c-0.8,1.2-1.4,2.8-1.7,4.6c-0.3,1.8-0.5,3.9-0.6,6.1H198.2
				L198.2,53.9z M222,69.8c0,1.7,0.3,2.8,0.8,3.3c0.6,0.5,1.6,0.8,3,0.8c1,0.1,1.7,0.2,2.2,0.5c0.5,0.2,0.7,0.8,0.7,1.8v4.3
				c-1,0.3-2,0.5-3.1,0.7c-1.1,0.2-2.2,0.2-3.5,0.2c-1.9,0-3.5-0.3-4.8-0.9c-1.2-0.6-2.2-1.5-3-2.7c-0.7-1.2-1.3-2.7-1.5-4.4
				c-0.3-1.8-0.4-3.8-0.4-6.2V13.8h7.2c0.7,0,1.2,0.2,1.6,0.6c0.4,0.4,0.6,0.9,0.6,1.6V69.8L222,69.8z M240.7,69.8
				c0,1.7,0.3,2.8,0.8,3.3c0.6,0.5,1.6,0.8,3,0.8c1,0.1,1.7,0.2,2.2,0.5c0.5,0.2,0.7,0.8,0.7,1.8v4.3c-1,0.3-2,0.5-3.1,0.7
				c-1.1,0.2-2.2,0.2-3.5,0.2c-1.9,0-3.5-0.3-4.8-0.9c-1.2-0.6-2.2-1.5-3-2.7c-0.7-1.2-1.3-2.7-1.5-4.4c-0.3-1.8-0.4-3.8-0.4-6.2
				V13.8h7.2c0.7,0,1.2,0.2,1.6,0.6c0.4,0.4,0.6,0.9,0.6,1.6V69.8L240.7,69.8z M260.9,80.8h-7.2c-1.5,0-2.2-0.7-2.2-2.1V33.3h7.2
				c1.5,0,2.2,0.7,2.2,2.1V80.8L260.9,80.8z"/>
			<path class="st1" d="M263.4,18.9l0.4,0v0c0,0,0,0,0,0l0,0l0,0l0,0l0,0v0l0,0l0,0l0,0l0,0l0,0l0,0l0,0l0,0v0l0,0l0,0l0,0l0,0l0,0
				v0l0,0l0,0l0,0l0,0l0,0l0,0l0,0l0,0v0l0,0l0,0h0l0,0l0,0l0,0l0,0l0,0l0,0l0,0l0,0l0,0l0,0l0,0l0,0l0,0l0,0l0,0l0,0l0,0l0,0l0,0
				l0,0l0,0l0,0l0,0l0,0l0,0l0,0l0,0l0,0l0,0l0,0l0,0h0l0,0h0l0,0l0,0l0,0l0,0l0,0l0,0l0,0l0,0l0,0h0l0,0l0,0l0,0l0,0l0,0l0,0
				c0,0,0,0,0,0h0l0,0l0.3,0.8h0l0,0l0,0l0,0l0,0l0,0v0l0,0l0,0l0,0l0,0l0,0l0,0l0,0l0,0l0,0l0,0l0,0l0,0l0,0l0,0l0,0l0,0l0,0l0,0
				l0,0l0,0l0,0l0,0v0l0,0l0,0l0,0l0,0l0,0l0,0l0,0v0l0,0l0,0l0,0l0,0l0,0l0,0l0,0v0l0,0l0,0l0,0l0,0l0,0h0l0,0v0l0,0v0l0,0v0l0,0
				l0,0l0,0h0l0,0l0,0l0,0l0,0l0,0v0l0,0l0,0l0,0l0,0l0,0v0l0,0l0,0l0,0l0,0l0,0l0,0l0,0l0,0l0,0l0,0v0l0,0l0,0l0,0l0,0l0,0l0,0l0,0
				l0,0l0,0l0,0l0,0l0,0l0,0l0,0l0,0l0,0l0,0l0,0h0l0,0h0l0,0l0,0l0,0l0,0l0,0l0,0l0,0l0,0h0l0,0v0l0,0l0,0l0,0v0
				c0.1,0,0.3,0.1,0.4,0.1l0,0c0.1,0,0.1,0,0.2,0h0l0.7-0.6l0,0c0.1-0.1,0.2-0.1,0.2,0l0,0l0.3,0.2l0.3,0.2c0.1,0.1,0.1,0.2,0.1,0.2
				v0l-0.3,0.8l0,0c0,0.1,0,0.1,0,0.2l0,0c0.1,0.1,0.2,0.2,0.3,0.4c0,0.1,0.1,0.1,0.2,0.1l0,0l0.9,0l0,0c0.1,0,0.2,0.1,0.2,0.1l0,0
				l0.1,0.3l0.1,0.3c0,0.1,0,0.2-0.1,0.2v0l-0.8,0.4l0,0c-0.1,0-0.1,0.1-0.1,0.2h0c0,0.2,0,0.3,0,0.5c0,0.1,0,0.1,0.1,0.2l0,0
				l0.7,0.6l0,0c0.1,0.1,0.1,0.2,0.1,0.2l0,0l-0.1,0.3l-0.2,0.3c0,0.1-0.1,0.1-0.2,0.1l0,0l-0.9-0.2l0,0c-0.1,0-0.1,0-0.2,0.1l0,0
				c-0.1,0.1-0.2,0.2-0.3,0.3l0,0c-0.1,0-0.1,0.1-0.1,0.2l0,0l0.2,0.9l0,0c0,0.1,0,0.2-0.1,0.2l0,0l-0.3,0.1l-0.3,0.1
				c-0.1,0-0.2,0-0.2-0.1l0,0l-0.5-0.7l0,0c0-0.1-0.1-0.1-0.2-0.1l0,0c-0.1,0-0.1,0-0.2,0c-0.1,0-0.2,0-0.2,0l0,0
				c-0.1,0-0.1,0-0.2,0.1l0,0l-0.4,0.8l0,0c0,0.1-0.1,0.1-0.2,0.1l0,0l-0.3-0.1l-0.3-0.1c-0.1,0-0.1-0.1-0.1-0.2h0l0-0.9v0
				c0-0.1,0-0.1-0.1-0.2l0,0c-0.1-0.1-0.2-0.2-0.4-0.3l0,0c-0.1,0-0.1-0.1-0.2,0h0l-0.8,0.3l0,0c-0.1,0-0.2,0-0.2-0.1l0,0l-0.2-0.3
				l-0.2-0.3c-0.1-0.1,0-0.2,0-0.2v0l0.6-0.7l0,0c0-0.1,0.1-0.1,0-0.2l0,0c0-0.1-0.1-0.3-0.1-0.4h0c0-0.1-0.1-0.1-0.1-0.2l0,0
				l-0.8-0.3l0,0c-0.1,0-0.1-0.1-0.1-0.2l0,0l0-0.3l0-0.4c0-0.1,0.1-0.2,0.2-0.2v0l0.9-0.1l0,0c0.1,0,0.1-0.1,0.2-0.1l0,0
				c0.1-0.1,0.1-0.3,0.2-0.4l0,0c0-0.1,0-0.1,0-0.2l0,0l-0.5-0.8l0,0c0-0.1,0-0.2,0-0.2l0,0l0.2-0.2l0.3-0.2c0.1-0.1,0.2-0.1,0.2,0
				l0,0l0.8,0.5l0,0c0.1,0,0.1,0,0.2,0l0,0c0.1-0.1,0.3-0.1,0.4-0.2v0l0,0l0,0l0,0h0l0,0h0l0,0l0,0l0,0l0,0l0,0h0l0,0l0,0l0,0l0,0
				l0,0l0,0l0,0l0,0l0,0l0,0l0,0l0,0l0,0l0,0l0,0l0,0l0,0l0,0l0,0l0,0l0,0l0,0l0,0l0,0l0,0l0,0l0,0l0,0l0,0l0,0l0,0l0,0l0,0v0l0,0
				l0,0l0,0l0,0l0,0l0,0h0l0,0l0,0l0,0l0,0l0,0l0,0v0l0,0l0,0l0,0l0,0l0,0l0,0l0,0l0,0h0l0,0l0,0c0,0,0,0,0,0l0,0h0l0.1-0.9l0,0l0,0
				l0,0l0,0l0,0l0,0l0,0l0,0h0l0,0l0,0l0,0h0l0,0l0,0l0,0l0,0l0,0l0,0l0,0h0l0,0l0,0l0,0h0l0,0l0,0l0,0l0,0l0,0l0,0l0,0l0,0l0,0h0
				l0,0h0l0,0h0l0,0l0,0l0,0l0,0l0,0l0,0l0,0l0,0l0,0h0l0,0l0,0l0,0l0,0l0,0l0,0l0,0l0,0l0,0l0,0l0,0h0l0,0l0,0l0,0l0,0l0,0l0,0l0,0
				l0,0l0,0l0,0l0,0l0,0v0l0,0l0,0l0,0l0,0l0,0l0,0l0,0l0,0l0,0l0,0l0,0l0,0l0,0l0,0L263.4,18.9L263.4,18.9z M263.7,21.9
				c0.7,0,1.2,0.5,1.2,1.2c0,0.7-0.5,1.2-1.2,1.2c-0.7,0-1.2-0.5-1.2-1.2C262.5,22.5,263.1,21.9,263.7,21.9L263.7,21.9z"/>
		</g>
	</g>
	<path class="st2" d="M67.6,92.9v-2.5h2.3v2.5H67.6z M67.6,105.4V94.6h2.3v10.8H67.6z M88.9,105.4h-2.3v-6.1c0-1-0.2-1.7-0.5-2.2
		c-0.3-0.5-0.8-0.7-1.4-0.7c-0.6,0-1.2,0.2-1.8,0.7c-0.5,0.5-0.9,1.1-1.1,1.8v6.4h-2.3v-6.1c0-1-0.2-1.8-0.5-2.2
		c-0.3-0.5-0.8-0.7-1.4-0.7c-0.6,0-1.2,0.2-1.8,0.7c-0.5,0.5-0.9,1.1-1.2,1.8v6.4h-2.3V94.6h2.1v2.2c0.4-0.8,1-1.3,1.7-1.7
		c0.7-0.4,1.5-0.6,2.4-0.6c0.9,0,1.6,0.2,2.1,0.7c0.5,0.5,0.8,1.1,1,1.8c0.5-0.8,1-1.4,1.7-1.8c0.7-0.4,1.5-0.6,2.4-0.6
		c0.6,0,1.2,0.1,1.6,0.4c0.4,0.2,0.8,0.6,1,1c0.2,0.4,0.4,0.9,0.5,1.4c0.1,0.5,0.1,1.1,0.1,1.7V105.4z M94.2,105.6
		c-0.5,0-1-0.1-1.5-0.3c-0.4-0.2-0.8-0.4-1.2-0.7c-0.3-0.3-0.6-0.7-0.8-1.1c-0.2-0.4-0.3-0.9-0.3-1.3c0-0.5,0.1-1,0.3-1.4
		c0.2-0.4,0.5-0.8,0.9-1.1c0.4-0.3,0.9-0.5,1.4-0.7c0.6-0.2,1.2-0.2,1.8-0.2c0.5,0,1,0,1.5,0.1c0.5,0.1,0.9,0.2,1.3,0.4v-0.7
		c0-0.8-0.2-1.4-0.7-1.9c-0.5-0.4-1.1-0.7-2-0.7c-0.6,0-1.1,0.1-1.7,0.3c-0.6,0.2-1.1,0.5-1.7,0.9l-0.7-1.4c1.4-0.9,2.8-1.4,4.3-1.4
		c1.5,0,2.6,0.4,3.5,1.1c0.8,0.8,1.2,1.8,1.2,3.3v3.9c0,0.5,0.2,0.7,0.6,0.7v1.9c-0.2,0-0.4,0.1-0.6,0.1c-0.2,0-0.3,0-0.5,0
		c-0.4,0-0.8-0.1-1-0.3c-0.2-0.2-0.4-0.5-0.4-0.8l-0.1-0.7c-0.5,0.6-1.1,1.1-1.8,1.5C95.8,105.5,95,105.6,94.2,105.6z M94.8,104
		c0.5,0,1.1-0.1,1.6-0.3c0.5-0.2,0.9-0.5,1.1-0.8c0.3-0.2,0.4-0.5,0.4-0.8v-1.4c-0.4-0.2-0.8-0.3-1.2-0.4c-0.4-0.1-0.9-0.1-1.3-0.1
		c-0.8,0-1.5,0.2-2,0.5c-0.5,0.4-0.8,0.8-0.8,1.4c0,0.5,0.2,1,0.6,1.4C93.7,103.8,94.2,104,94.8,104z M107,105.5
		c-0.7,0-1.4-0.1-2-0.4c-0.6-0.3-1.1-0.7-1.6-1.2c-0.4-0.5-0.8-1.1-1-1.8c-0.2-0.7-0.4-1.4-0.4-2.1c0-0.8,0.1-1.5,0.4-2.2
		c0.2-0.7,0.6-1.3,1-1.8c0.4-0.5,1-0.9,1.6-1.2c0.6-0.3,1.3-0.4,2-0.4c0.9,0,1.6,0.2,2.3,0.6c0.7,0.4,1.2,0.9,1.6,1.6v-2h2v10.5
		c0,0.8-0.1,1.5-0.4,2.1c-0.3,0.6-0.7,1.1-1.2,1.5c-0.5,0.4-1.1,0.7-1.8,1c-0.7,0.2-1.5,0.3-2.3,0.3c-1.2,0-2.2-0.2-3-0.6
		c-0.8-0.4-1.5-1-2-1.7l1.3-1.2c0.4,0.6,0.9,1,1.6,1.3c0.7,0.3,1.4,0.5,2.1,0.5c0.5,0,0.9-0.1,1.3-0.2c0.4-0.1,0.8-0.3,1.1-0.6
		c0.3-0.3,0.6-0.6,0.8-1c0.2-0.4,0.3-0.9,0.3-1.4v-1.7c-0.4,0.7-0.9,1.2-1.6,1.5C108.5,105.4,107.8,105.5,107,105.5z M107.8,103.7
		c0.3,0,0.7-0.1,1-0.2c0.3-0.1,0.6-0.3,0.9-0.5c0.3-0.2,0.5-0.4,0.7-0.7c0.2-0.3,0.3-0.5,0.4-0.8v-2.8c-0.1-0.3-0.3-0.7-0.5-0.9
		c-0.2-0.3-0.5-0.5-0.8-0.7c-0.3-0.2-0.6-0.4-0.9-0.5c-0.3-0.1-0.6-0.2-0.9-0.2c-0.5,0-0.9,0.1-1.3,0.3c-0.4,0.2-0.7,0.5-1,0.8
		c-0.3,0.4-0.5,0.7-0.6,1.2c-0.2,0.4-0.2,0.9-0.2,1.4c0,0.5,0.1,1,0.3,1.4c0.2,0.4,0.4,0.8,0.7,1.1c0.3,0.3,0.7,0.6,1.1,0.8
		C106.9,103.6,107.3,103.7,107.8,103.7z M115.5,92.9v-2.5h2.3v2.5H115.5z M115.5,105.4V94.6h2.3v10.8H115.5z M130,105.4h-2.3v-6.1
		c0-1-0.2-1.8-0.5-2.2c-0.3-0.5-0.8-0.7-1.4-0.7c-0.3,0-0.7,0.1-1,0.2c-0.3,0.1-0.6,0.3-0.9,0.5c-0.3,0.2-0.5,0.5-0.8,0.8
		c-0.2,0.3-0.4,0.7-0.5,1v6.4h-2.3V94.6h2.1v2.2c0.4-0.7,1-1.3,1.8-1.7c0.8-0.4,1.7-0.6,2.6-0.6c0.6,0,1.2,0.1,1.6,0.4
		c0.4,0.2,0.7,0.6,1,1c0.2,0.4,0.4,0.9,0.5,1.4c0.1,0.5,0.1,1.1,0.1,1.7V105.4z M137.3,105.6c-0.8,0-1.6-0.1-2.3-0.4
		c-0.7-0.3-1.3-0.7-1.8-1.2c-0.5-0.5-0.9-1.1-1.1-1.8c-0.3-0.7-0.4-1.4-0.4-2.1c0-0.8,0.1-1.5,0.4-2.2c0.3-0.7,0.6-1.3,1.1-1.8
		c0.5-0.5,1.1-0.9,1.8-1.2c0.7-0.3,1.5-0.4,2.3-0.4c0.8,0,1.6,0.2,2.3,0.5c0.7,0.3,1.3,0.7,1.7,1.2c0.5,0.5,0.8,1.1,1.1,1.8
		c0.3,0.7,0.4,1.4,0.4,2.1c0,0.2,0,0.3,0,0.5c0,0.1,0,0.3,0,0.4h-8.6c0,0.5,0.2,0.9,0.3,1.3c0.2,0.4,0.4,0.7,0.7,1
		c0.3,0.3,0.6,0.5,1,0.7c0.4,0.2,0.8,0.2,1.2,0.2c0.3,0,0.6,0,0.9-0.1c0.3-0.1,0.6-0.2,0.8-0.3c0.2-0.1,0.5-0.3,0.7-0.5
		c0.2-0.2,0.3-0.4,0.5-0.7l1.9,0.6c-0.4,0.8-1,1.5-1.8,2C139.5,105.4,138.5,105.6,137.3,105.6z M140.6,99.2c0-0.5-0.2-0.9-0.3-1.3
		c-0.2-0.4-0.4-0.7-0.7-1c-0.3-0.3-0.6-0.5-1-0.6c-0.4-0.2-0.8-0.2-1.2-0.2c-0.4,0-0.8,0.1-1.2,0.2c-0.4,0.2-0.7,0.4-1,0.6
		c-0.3,0.3-0.5,0.6-0.7,1c-0.2,0.4-0.3,0.8-0.3,1.3H140.6z M151.9,92v4.6c0,0.2-0.1,0.5-0.2,0.7c-0.1,0.2-0.3,0.5-0.5,0.7
		c0.2,0.2,0.4,0.4,0.5,0.7c0.1,0.2,0.2,0.5,0.2,0.7v4.9h1.1v1.8h-2.7c-0.1,0-0.2,0-0.3-0.1c-0.1-0.1-0.2-0.3-0.2-0.5v-5.4
		c0-0.3-0.1-0.6-0.3-0.9c-0.2-0.2-0.4-0.4-0.7-0.4v-1.6c0.1,0,0.3,0,0.4-0.1c0.1-0.1,0.2-0.2,0.3-0.3c0.1-0.1,0.1-0.3,0.2-0.4
		c0-0.1,0.1-0.3,0.1-0.4v-5.1c0-0.3,0.1-0.4,0.2-0.5c0.1-0.1,0.2-0.1,0.3-0.1h2.7V92H151.9z M159.8,92v-1.8h2.7c0.1,0,0.2,0,0.3,0.1
		c0.1,0.1,0.2,0.2,0.2,0.5v5.1c0,0.1,0,0.3,0.1,0.4c0,0.1,0.1,0.3,0.2,0.4c0.1,0.1,0.2,0.2,0.3,0.3c0.1,0.1,0.3,0.1,0.4,0.1v1.6
		c-0.3,0.1-0.5,0.2-0.7,0.4c-0.2,0.2-0.3,0.5-0.3,0.9v5.4c0,0.2-0.1,0.4-0.2,0.5c-0.1,0.1-0.2,0.1-0.3,0.1h-2.7v-1.8h1.1v-4.9
		c0-0.2,0.1-0.5,0.2-0.7c0.1-0.2,0.3-0.5,0.5-0.7c-0.2-0.2-0.4-0.4-0.5-0.7c-0.1-0.2-0.2-0.5-0.2-0.7V92H159.8z M173.7,105.6
		c-0.5,0-1-0.1-1.5-0.3c-0.4-0.2-0.8-0.4-1.2-0.7c-0.3-0.3-0.6-0.7-0.8-1.1c-0.2-0.4-0.3-0.9-0.3-1.3c0-0.5,0.1-1,0.3-1.4
		c0.2-0.4,0.5-0.8,0.9-1.1c0.4-0.3,0.9-0.5,1.4-0.7c0.6-0.2,1.2-0.2,1.8-0.2c0.5,0,1,0,1.5,0.1c0.5,0.1,0.9,0.2,1.3,0.4v-0.7
		c0-0.8-0.2-1.4-0.7-1.9c-0.5-0.4-1.1-0.7-2-0.7c-0.6,0-1.1,0.1-1.7,0.3c-0.6,0.2-1.1,0.5-1.7,0.9l-0.7-1.4c1.4-0.9,2.8-1.4,4.3-1.4
		c1.5,0,2.6,0.4,3.5,1.1c0.8,0.8,1.2,1.8,1.2,3.3v3.9c0,0.5,0.2,0.7,0.6,0.7v1.9c-0.2,0-0.4,0.1-0.6,0.1c-0.2,0-0.3,0-0.5,0
		c-0.4,0-0.8-0.1-1-0.3c-0.2-0.2-0.4-0.5-0.4-0.8l-0.1-0.7c-0.5,0.6-1.1,1.1-1.8,1.5C175.3,105.5,174.5,105.6,173.7,105.6z
		 M174.3,104c0.5,0,1.1-0.1,1.6-0.3c0.5-0.2,0.9-0.5,1.1-0.8c0.3-0.2,0.4-0.5,0.4-0.8v-1.4c-0.4-0.2-0.8-0.3-1.2-0.4
		s-0.9-0.1-1.3-0.1c-0.8,0-1.5,0.2-2,0.5c-0.5,0.4-0.8,0.8-0.8,1.4c0,0.5,0.2,1,0.6,1.4C173.2,103.8,173.7,104,174.3,104z
		 M185.6,105.6c-1.1,0-2-0.4-2.6-1.1c-0.6-0.7-0.9-1.8-0.9-3.3v-6.6h2.3v6.2c0,1.9,0.7,2.9,2.1,2.9c0.6,0,1.3-0.2,1.8-0.6
		c0.6-0.4,1-1,1.3-1.7v-6.7h2.3v8.1c0,0.3,0,0.4,0.1,0.6c0.1,0.1,0.3,0.2,0.5,0.2v1.9c-0.2,0-0.4,0.1-0.6,0.1c-0.2,0-0.3,0-0.4,0
		c-0.4,0-0.8-0.1-1.1-0.3c-0.3-0.2-0.4-0.5-0.5-0.9l0-1.1c-0.5,0.8-1.1,1.4-1.9,1.8C187.4,105.4,186.5,105.6,185.6,105.6z
		 M200.6,104.9c-0.3,0.1-0.7,0.3-1.2,0.5c-0.5,0.2-1.1,0.3-1.6,0.3c-0.4,0-0.7,0-1-0.1c-0.3-0.1-0.6-0.2-0.8-0.4
		c-0.2-0.2-0.4-0.4-0.6-0.8c-0.1-0.3-0.2-0.7-0.2-1.1v-6.8h-1.4v-1.8h1.4v-3.6h2.3v3.6h2.4v1.8h-2.4v6c0,0.4,0.1,0.7,0.4,0.8
		c0.2,0.2,0.5,0.3,0.8,0.3c0.3,0,0.6-0.1,0.9-0.2c0.3-0.1,0.5-0.2,0.6-0.3L200.6,104.9z M206.6,105.6c-0.9,0-1.6-0.2-2.3-0.5
		c-0.7-0.3-1.3-0.7-1.7-1.2c-0.5-0.5-0.9-1.1-1.1-1.8c-0.3-0.7-0.4-1.4-0.4-2.1s0.1-1.5,0.4-2.1c0.3-0.7,0.6-1.3,1.1-1.8
		c0.5-0.5,1.1-0.9,1.8-1.2c0.7-0.3,1.4-0.5,2.3-0.5c0.8,0,1.6,0.2,2.3,0.5c0.7,0.3,1.3,0.7,1.8,1.2c0.5,0.5,0.9,1.1,1.1,1.8
		c0.3,0.7,0.4,1.4,0.4,2.1s-0.1,1.5-0.4,2.1c-0.3,0.7-0.6,1.3-1.1,1.8c-0.5,0.5-1.1,0.9-1.8,1.2
		C208.2,105.5,207.4,105.6,206.6,105.6z M203.3,100.1c0,0.5,0.1,1,0.2,1.4c0.2,0.4,0.4,0.8,0.7,1.1c0.3,0.3,0.6,0.6,1,0.8
		c0.4,0.2,0.8,0.3,1.3,0.3c0.5,0,0.9-0.1,1.3-0.3c0.4-0.2,0.7-0.4,1-0.8c0.3-0.3,0.5-0.7,0.7-1.2c0.2-0.4,0.2-0.9,0.2-1.4
		c0-0.5-0.1-1-0.2-1.4c-0.2-0.4-0.4-0.8-0.7-1.2c-0.3-0.3-0.6-0.6-1-0.8c-0.4-0.2-0.8-0.3-1.3-0.3c-0.4,0-0.9,0.1-1.2,0.3
		c-0.4,0.2-0.7,0.5-1,0.8c-0.3,0.3-0.5,0.7-0.7,1.2C203.4,99.1,203.3,99.6,203.3,100.1z M230.4,105.4h-2.3v-6.1c0-1-0.2-1.7-0.5-2.2
		c-0.3-0.5-0.8-0.7-1.4-0.7c-0.6,0-1.2,0.2-1.8,0.7c-0.5,0.5-0.9,1.1-1.1,1.8v6.4H221v-6.1c0-1-0.2-1.8-0.5-2.2
		c-0.3-0.5-0.8-0.7-1.4-0.7c-0.6,0-1.2,0.2-1.8,0.7c-0.5,0.5-0.9,1.1-1.2,1.8v6.4h-2.3V94.6h2.1v2.2c0.4-0.8,1-1.3,1.7-1.7
		c0.7-0.4,1.5-0.6,2.4-0.6c0.9,0,1.6,0.2,2.1,0.7c0.5,0.5,0.8,1.1,1,1.8c0.5-0.8,1-1.4,1.7-1.8c0.7-0.4,1.5-0.6,2.4-0.6
		c0.6,0,1.2,0.1,1.6,0.4c0.4,0.2,0.8,0.6,1,1c0.2,0.4,0.4,0.9,0.5,1.4c0.1,0.5,0.1,1.1,0.1,1.7V105.4z M235.7,105.6
		c-0.5,0-1-0.1-1.5-0.3c-0.4-0.2-0.8-0.4-1.2-0.7c-0.3-0.3-0.6-0.7-0.8-1.1c-0.2-0.4-0.3-0.9-0.3-1.3c0-0.5,0.1-1,0.3-1.4
		c0.2-0.4,0.5-0.8,0.9-1.1c0.4-0.3,0.9-0.5,1.4-0.7c0.6-0.2,1.2-0.2,1.8-0.2c0.5,0,1,0,1.5,0.1c0.5,0.1,0.9,0.2,1.3,0.4v-0.7
		c0-0.8-0.2-1.4-0.7-1.9c-0.5-0.4-1.1-0.7-2-0.7c-0.6,0-1.1,0.1-1.7,0.3c-0.6,0.2-1.1,0.5-1.7,0.9l-0.7-1.4c1.4-0.9,2.8-1.4,4.3-1.4
		c1.5,0,2.6,0.4,3.5,1.1c0.8,0.8,1.2,1.8,1.2,3.3v3.9c0,0.5,0.2,0.7,0.6,0.7v1.9c-0.2,0-0.4,0.1-0.6,0.1c-0.2,0-0.3,0-0.5,0
		c-0.4,0-0.8-0.1-1-0.3c-0.2-0.2-0.4-0.5-0.4-0.8l-0.1-0.7c-0.5,0.6-1.1,1.1-1.8,1.5C237.3,105.5,236.5,105.6,235.7,105.6z
		 M236.3,104c0.5,0,1.1-0.1,1.6-0.3c0.5-0.2,0.9-0.5,1.1-0.8c0.3-0.2,0.4-0.5,0.4-0.8v-1.4c-0.4-0.2-0.8-0.3-1.2-0.4
		s-0.9-0.1-1.3-0.1c-0.8,0-1.5,0.2-2,0.5c-0.5,0.4-0.8,0.8-0.8,1.4c0,0.5,0.2,1,0.6,1.4C235.2,103.8,235.7,104,236.3,104z
		 M250.2,104.9c-0.3,0.1-0.7,0.3-1.2,0.5c-0.5,0.2-1.1,0.3-1.6,0.3c-0.4,0-0.7,0-1-0.1c-0.3-0.1-0.6-0.2-0.8-0.4
		c-0.2-0.2-0.4-0.4-0.6-0.8c-0.1-0.3-0.2-0.7-0.2-1.1v-6.8h-1.4v-1.8h1.4v-3.6h2.3v3.6h2.4v1.8H247v6c0,0.4,0.1,0.7,0.4,0.8
		c0.2,0.2,0.5,0.3,0.8,0.3c0.3,0,0.6-0.1,0.9-0.2c0.3-0.1,0.5-0.2,0.6-0.3L250.2,104.9z M256.2,105.6c-0.8,0-1.6-0.1-2.3-0.4
		c-0.7-0.3-1.3-0.7-1.8-1.2c-0.5-0.5-0.9-1.1-1.1-1.8c-0.3-0.7-0.4-1.4-0.4-2.1c0-0.8,0.1-1.5,0.4-2.2c0.3-0.7,0.6-1.3,1.1-1.8
		c0.5-0.5,1.1-0.9,1.8-1.2c0.7-0.3,1.5-0.4,2.3-0.4c0.8,0,1.6,0.2,2.3,0.5c0.7,0.3,1.3,0.7,1.7,1.2c0.5,0.5,0.8,1.1,1.1,1.8
		c0.3,0.7,0.4,1.4,0.4,2.1c0,0.2,0,0.3,0,0.5c0,0.1,0,0.3,0,0.4H253c0,0.5,0.2,0.9,0.3,1.3c0.2,0.4,0.4,0.7,0.7,1
		c0.3,0.3,0.6,0.5,1,0.7c0.4,0.2,0.8,0.2,1.2,0.2c0.3,0,0.6,0,0.9-0.1c0.3-0.1,0.6-0.2,0.8-0.3c0.2-0.1,0.5-0.3,0.7-0.5
		c0.2-0.2,0.3-0.4,0.5-0.7l1.9,0.6c-0.4,0.8-1,1.5-1.8,2C258.3,105.4,257.3,105.6,256.2,105.6z M259.5,99.2c0-0.5-0.2-0.9-0.3-1.3
		c-0.2-0.4-0.4-0.7-0.7-1c-0.3-0.3-0.6-0.5-1-0.6c-0.4-0.2-0.8-0.2-1.2-0.2c-0.4,0-0.8,0.1-1.2,0.2c-0.4,0.2-0.7,0.4-1,0.6
		c-0.3,0.3-0.5,0.6-0.7,1c-0.2,0.4-0.3,0.8-0.3,1.3H259.5z"/>
</g>
</svg>
